<svg xmlns="http://www.w3.org/2000/svg" width="162.258" height="15.172">
    <path d="m10.438 10.672-.094.453a6 6 0 0 1-.61.047q-.345 0-.89-.047a10 10 0 0 0-1.016-.062q-.346-.001-.703.109c.219-.602.46-1.438.734-2.5l.594-2.344-2.11.078c-.366.024-.745.047-1.14.078Q4.671 8.582 4.11 9.578q-.564 1-1.28 1.469-.723.482-1.391.484c-.43 0-.797-.105-1.11-.312Q0 10.985 0 10.656q-.001-.187.125-.328a.45.45 0 0 1 .328-.14c.195 0 .406.148.625.437q.186.252.313.328a.47.47 0 0 0 .265.078q.609 0 1.14-.984.547-.984 1.579-4.875l.766-2.86q-1.563 0-2.36.516Q1.998 3.344 2 4c0 .148.07.328.219.547q.187.316.187.516a.5.5 0 0 1-.156.375.5.5 0 0 1-.36.14q-.27.002-.468-.265-.188-.263-.188-.766 0-.903.657-1.594.654-.703 1.906-.984.714-.171 2.86-.172-.58 1.143-1.282 4.031 2.061 0 3.25-.14c.445-1.508.844-2.563 1.188-3.157q.513-.903 1.156-1.297.656-.405 1.453-.406.685.001 1.047.266c.25.18.375.375.375.594a.41.41 0 0 1-.14.328.44.44 0 0 1-.329.125c-.187 0-.398-.13-.625-.391q-.344-.389-.625-.39-.581 0-1.156 1.078-1.02 1.94-2.344 8.187.123.017.375.047c.29.055.531.078.719.078.207 0 .445-.023.719-.078m5.554-1.61.266.344q-1.922 1.828-3.281 1.828c-.375 0-.665-.125-.86-.375-.187-.25-.281-.648-.281-1.203q-.002-1.67 1.016-3.328 1.136-1.888 2.718-1.89.563 0 .844.28c.195.188.297.446.297.766q0 .503-.36 1-.346.488-1.25 1.016-.456.27-1.937.938a5 5 0 0 0-.062.796c0 .375.054.637.171.782q.171.22.516.218.31 0 .703-.187.516-.234 1.5-.984m-2.734-1.124q1.265-.563 1.89-1.22.437-.45.438-.89c0-.226-.063-.406-.188-.531a.58.58 0 0 0-.453-.203q-.281 0-.562.219-.363.282-.61.875a8 8 0 0 0-.515 1.75m9.406-3.61.516-.11-.578 1.97q-.363 1.189-.672 2.718-.174.844-.172 1.078-.001.251.203.25c.082 0 .21-.054.39-.171q.48-.28.938-.72l.25.313c-.594.543-.977.871-1.14.985a4.7 4.7 0 0 1-.954.515c-.199.07-.39.11-.578.11q-.206 0-.312-.094-.094-.094-.094-.281 0-.123.062-.328l.313-1.063a6.4 6.4 0 0 1-1.61 1.39c-.374.239-.726.36-1.046.36q-.456 0-.688-.328-.328-.422-.328-1.125 0-.825.438-1.844.434-1.013 1.171-1.844.748-.826 1.579-1.218.622-.295 1.625-.297.247 0 .5.031zm-.969 1.188a4 4 0 0 0-.703-.078 2.04 2.04 0 0 0-1.234.39q-.517.376-.969 1.39a4.8 4.8 0 0 0-.453 2q-.002.533.172.766a.59.59 0 0 0 .484.235c.352 0 .735-.192 1.14-.578q.623-.592.923-1.688zm5.97-.313q-.61.956-.845 1.688-.22.737-.218 1.468-.001.676.296 2.094Q28.615 9.142 29.336 8c.476-.758.719-1.414.719-1.969q-.001-.246-.172-.61-.204-.387-.203-.577 0-.2.14-.36a.45.45 0 0 1 .344-.156q.247 0 .406.235.155.222.157.75 0 1.658-1.172 3.234a9.8 9.8 0 0 1-3.672 3 17 17 0 0 0-.219-1.188q-.314-1.605-.312-2.25-.002-.825.39-1.609a3.8 3.8 0 0 1 1.156-1.375q-1.377.033-1.968.313-.423.204-.422.468-.001.112.11.375c.038.117.062.215.062.297a.33.33 0 0 1-.11.235.34.34 0 0 1-.25.093.42.42 0 0 1-.343-.172q-.141-.17-.141-.468 0-.452.297-.828.311-.374 1.062-.579.749-.215 1.985-.203.497-.217.625-.218.124.002.218.109c.07.062.11.137.11.219q0 .236-.469.437m7.522 3.86.266.343q-1.922 1.828-3.281 1.828-.564 0-.86-.375c-.187-.25-.28-.648-.28-1.203 0-1.113.335-2.222 1.015-3.328q1.137-1.889 2.719-1.89.563 0 .843.28c.196.188.297.446.297.766q0 .503-.36 1-.346.488-1.25 1.016-.455.27-1.937.938a5 5 0 0 0-.062.796q-.002.564.172.782.17.22.515.218.31 0 .704-.187.515-.234 1.5-.984m-2.734-1.125q1.265-.563 1.89-1.22.437-.45.438-.89c0-.226-.062-.406-.187-.531a.58.58 0 0 0-.453-.203q-.282 0-.563.219-.363.282-.61.875a8 8 0 0 0-.515 1.75m4.313-1.657-.266-.265q.996-.95 1.594-1.266.592-.311 1.015-.312.171 0 .266.078.094.063.094.156 0 .063-.047.25l-.344 1.562q.794-.873 2-1.64.638-.405 1.047-.406.31.002.484.203.171.187.172.562 0 .235-.078.547a60 60 0 0 1-.656 2.203c-.336 1.063-.5 1.774-.5 2.125q0 .159.047.235.047.08.14.078.218 0 .703-.438.342-.31.688-.578l.203.281q-.72.8-1.5 1.282-.486.311-.812.312a.56.56 0 0 1-.47-.219q-.156-.217-.155-.703-.002-.687.875-3.453.264-.983.265-1.156-.002-.234-.297-.235-.315 0-.797.329a5 5 0 0 0-1.234 1.14q-.316.422-.516 1.344l-.64 2.719H36.89a41 41 0 0 0 .562-2.235l.703-2.968q.03-.185.031-.266-.002-.201-.156-.203c-.086 0-.203.054-.36.156q-.484.329-.905.781m9.03-2.422-.14-.5q.656-.574.86-.921c.132-.239.203-.461.203-.672q0-.171-.188-.516a1.1 1.1 0 0 1-.156-.531q0-.311.187-.516A.64.64 0 0 1 47.047 0q.294 0 .5.234a.9.9 0 0 1 .203.61q0 .658-.422 1.375-.423.703-1.531 1.64m5.368.594q.687.001 1.063.266c.257.18.39.386.39.625a.47.47 0 0 1-.172.36.5.5 0 0 1-.375.155.5.5 0 0 1-.265-.062q-.113-.06-.313-.328-.375-.516-.75-.516a.8.8 0 0 0-.578.25.86.86 0 0 0-.234.61c0 .218.05.43.156.625q.153.3.781.968.874.925.875 1.75 0 .833-.703 1.453-.704.626-1.812.625-.939 0-1.391-.375c-.305-.257-.453-.57-.453-.937 0-.188.055-.336.172-.453a.546.546 0 0 1 .797-.031.44.44 0 0 1 .156.328c0 .054-.008.12-.016.203v.172c0 .18.07.324.219.437q.201.188.578.188.42 0 .734-.141c.22-.102.383-.25.5-.437q.188-.295.188-.594-.001-.282-.172-.563-.175-.279-.75-.922-.813-.904-.812-1.75c0-.507.203-.953.609-1.328q.622-.576 1.578-.578m4.602 6.719.093-.438q.825-.152 1.094-.359c.188-.133.352-.375.5-.719q.234-.513.61-2.14.513-2.158.921-3.094.64-1.418 1.578-2.11.935-.686 1.907-.687.61 0 1.031.313.422.313.422.64a.5.5 0 0 1-.125.328.42.42 0 0 1-.313.125q-.234.002-.562-.297-.377-.327-.594-.421a.86.86 0 0 0-.39-.11.9.9 0 0 0-.454.125q-.299.176-.656.656c-.23.313-.469.79-.719 1.422q-.234.645-.609 2.11-.597 2.332-.89 3.093a3.2 3.2 0 0 1-.532.907q1.107-.248 1.781-.25.405.002.75.062.357.049 1.235.25.763.174 1.062.172a.74.74 0 0 0 .5-.172q.218-.187.219-.422c0-.101-.04-.242-.11-.422a1 1 0 0 1-.109-.39q-.001-.217.125-.328a.45.45 0 0 1 .328-.125q.234.002.391.203.17.204.172.562 0 .69-.563 1.188-.564.482-1.515.484-.485-.002-1.235-.062-2.532-.235-3.312-.235-1.142 0-2.031.14M68.969 1.094q.246 0 .406.172a.57.57 0 0 1 .156.406.87.87 0 0 1-.25.61.7.7 0 0 1-.531.25.52.52 0 0 1-.39-.157.6.6 0 0 1-.157-.437c0-.227.07-.426.219-.594a.73.73 0 0 1 .547-.25M65.89 6.266 65.547 6q.779-.856 1.422-1.219c.437-.238.804-.36 1.11-.36a.58.58 0 0 1 .374.11q.14.11.14.297 0 .224-.515 1.922c-.555 1.844-.828 2.96-.828 3.344q0 .11.047.187.06.064.125.063c.164 0 .594-.32 1.281-.969l.313.297q-1.08 1.018-1.578 1.297-.487.28-.797.281a.6.6 0 0 1-.438-.172q-.157-.168-.156-.484 0-.968 1.172-4.766.06-.187.062-.328 0-.154-.14-.156a.7.7 0 0 0-.36.125q-.204.129-.89.797m8.851-1.86.625-.14a92 92 0 0 0-1.047 3.656q-.345 1.313-.468 2.187a6.4 6.4 0 0 0-.079 1.125q-.016 1.123-.25 1.813-.329.95-1.234 1.531-.89.593-2.11.594-1.063-.001-1.671-.5-.61-.487-.61-1.125.001-.643.5-1.188.359-.409 1.5-1 .575-.297 1.079-.625-.58.298-.891.297-.3.002-.516-.265-.22-.28-.218-.72 0-1.435.843-2.858.855-1.421 2.063-2.125c.5-.29 1.117-.438 1.86-.438q.217.002.546.016zm-.875 1.157a3.5 3.5 0 0 0-.672-.079q-.738.002-1.265.391-.533.393-.907 1.313-.531 1.312-.53 2.203-.001.363.202.609.217.251.47.25.308 0 .765-.297.467-.293.765-.75.295-.45.594-1.562zm-1.062 4.25q-.535.487-2.047 1.53-1.349.903-1.64 1.313a1.36 1.36 0 0 0-.313.86q0 .433.39.797.405.358.97.359.525-.001 1.03-.266.497-.268.86-.765.375-.488.515-1.11.14-.627.157-1.672c0-.144.023-.492.078-1.046m9.351-.438.203.281q-.721.797-1.484 1.266-.516.328-.844.328a.55.55 0 0 1-.453-.219q-.157-.218-.156-.687-.002-.31.125-.906.124-.593.734-2.563.265-.966.266-1.14-.001-.265-.266-.266-.33 0-.828.328c-.46.305-.867.687-1.219 1.156-.218.305-.398.75-.53 1.344l-.626 2.719h-1.172a60 60 0 0 0 .578-2.235l1.157-5.015c.207-.914.476-1.625.812-2.125q.514-.75 1.344-1.188.827-.451 1.625-.453c.226 0 .406.059.531.172a.5.5 0 0 1 .203.406q-.002.223-.203.375-.187.157-.516.156a4 4 0 0 1-.484-.03 8 8 0 0 0-.922-.095.73.73 0 0 0-.594.297q-.222.283-.468 1.344l-.875 3.86q.936-.968 2.031-1.641.64-.405 1.031-.406.294 0 .469.187.17.187.172.516c0 .18-.024.355-.063.53-.062.306-.218.86-.468 1.673q-.516 1.674-.61 2.078a3.7 3.7 0 0 0-.078.719q-.002.129.031.187.048.064.141.063.188 0 .703-.438c.188-.164.422-.36.703-.578m2.946-6.125 1.25-.469-.563 2.188h1.61l-.126.547h-1.609l-.687 2.625q-.33 1.171-.329 1.64 0 .205.094.297a.34.34 0 0 0 .25.094q.233 0 .735-.281.653-.388 1.25-.875l.296.359q-1.706 1.3-2.28 1.594-.582.28-.938.281a.55.55 0 0 1-.453-.219c-.118-.133-.172-.363-.172-.687q-.001-.561.297-1.719l.812-3.11h-1.266l.141-.546h1.25zm9.773-2.156q.246 0 .406.172a.57.57 0 0 1 .156.406.87.87 0 0 1-.25.61.7.7 0 0 1-.53.25.52.52 0 0 1-.391-.157.6.6 0 0 1-.157-.437.86.86 0 0 1 .22-.594.73.73 0 0 1 .546-.25m-3.078 5.172L91.453 6q.779-.856 1.422-1.219.654-.359 1.11-.36a.58.58 0 0 1 .374.11q.141.11.141.297 0 .224-.516 1.922-.83 2.767-.828 3.344 0 .11.047.187.06.064.125.063c.164 0 .594-.32 1.281-.969l.313.297q-1.08 1.018-1.578 1.297-.486.28-.797.281a.6.6 0 0 1-.438-.172q-.157-.168-.156-.484 0-.969 1.172-4.766.061-.187.062-.328 0-.155-.14-.156a.7.7 0 0 0-.36.125q-.204.128-.89.797m7.023-1.813q.687.001 1.063.266.389.268.39.625a.47.47 0 0 1-.171.36.5.5 0 0 1-.375.155.5.5 0 0 1-.266-.062q-.112-.06-.313-.328-.375-.516-.75-.516a.8.8 0 0 0-.578.25.86.86 0 0 0-.234.61c0 .218.05.43.156.625q.153.3.781.968.874.925.875 1.75 0 .833-.703 1.453-.703.626-1.812.625-.939 0-1.39-.375c-.306-.257-.454-.57-.454-.937 0-.188.055-.336.172-.453a.546.546 0 0 1 .797-.031.44.44 0 0 1 .156.328q-.002.08-.016.203v.172c0 .18.07.324.22.437q.2.188.577.188c.282 0 .524-.047.735-.141q.325-.155.5-.437.187-.295.187-.594 0-.282-.172-.563-.176-.279-.75-.922-.813-.904-.812-1.75c0-.507.203-.953.61-1.328q.62-.576 1.577-.578m10.868-2.781q.982 0 1.765.469.796.454 1.234 1.297t.438 1.968q0 1.47-.797 2.922-.785 1.44-1.922 2.188a4.56 4.56 0 0 1-2.531.734c-1.062 0-1.93-.332-2.594-1q-.984-1.013-.984-2.64-.002-1.561.781-3.016.796-1.466 1.938-2.188 1.155-.733 2.671-.734m-.579.562q-.909.001-1.671.547c-.5.356-.915.914-1.235 1.672q-.485 1.125-.484 2.625c0 1.149.25 2.031.75 2.656q.764.938 1.89.938.844.002 1.594-.547.763-.561 1.25-1.75c.32-.8.484-1.719.484-2.75q0-1.593-.75-2.484c-.492-.602-1.101-.907-1.828-.907m9.79 2.438h1.109l-.735 2.719c-.43 1.586-.64 2.484-.64 2.703q0 .158.062.234c.051.055.102.078.157.078a.54.54 0 0 0 .312-.125q.264-.169.984-.906l.25.297q-1.563 1.64-2.312 1.64a.54.54 0 0 1-.422-.203c-.117-.125-.172-.304-.172-.546q-.002-.405.172-1.079a7 7 0 0 1-1.719 1.391q-.69.406-1.187.406a.51.51 0 0 1-.422-.187q-.157-.17-.156-.563 0-.31.062-.656.105-.497.516-1.984c.351-1.25.531-2 .531-2.25 0-.145-.055-.22-.156-.22-.094 0-.227.048-.39.142q-.236.14-.829.703l-.344-.282q1.044-.937 1.594-1.218.563-.295.89-.297.187 0 .298.14.124.13.125.422 0 .533-.563 2.64-.502 1.91-.5 2.173-.001.158.11.281.105.11.234.11c.289 0 .703-.239 1.234-.72q.81-.714 1.063-1.64zm3.53 6.36h-1.171l.547-2.11q.405-1.545.703-2.938.06-.34.062-.421 0-.188-.172-.188c-.074 0-.195.055-.359.156q-.236.158-.875.797l-.234-.281q.748-.795 1.484-1.203.748-.405 1.156-.406a.3.3 0 0 1 .22.078q.076.063.077.156 0 .112-.094.547l-.343 1.39a10.7 10.7 0 0 1 1.781-2.125q.48-.42.797-.421.233.002.39.156a.5.5 0 0 1 .157.36.5.5 0 0 1-.157.359q-.14.141-.75.343a3.6 3.6 0 0 0-.953.485c-.242.18-.507.453-.797.828q-.422.563-.593.984-.175.41-.532 1.938zm15.907-6.22h-.422q.03-.375.031-.656 0-1.044-.547-1.531c-.355-.32-.796-.484-1.328-.484q-1.112 0-2.218.75c-.743.492-1.344 1.183-1.813 2.078a5.9 5.9 0 0 0-.703 2.781c0 .992.226 1.719.687 2.188.47.46.993.687 1.579.687q.514 0 .984-.14a3.8 3.8 0 0 0 .906-.407q.358-1.216.36-1.625a.37.37 0 0 0-.157-.312c-.093-.07-.261-.11-.5-.11q-.129.001-.61.032l.079-.375q.341-.062.687-.063c.188 0 .422.008.704.016h.468q.28 0 .86-.047.31-.013.531-.031l-.094.406q-.392-.014-.562.172-.159.175-.328.906-.645 2.67-1.266 3.86-.625 1.201-1.422 1.718a3.1 3.1 0 0 1-1.719.516q-.785 0-1.265-.36-.486-.346-.485-.734-.001-.223.157-.375a.5.5 0 0 1 .343-.14q.264 0 .61.374c.25.282.445.461.594.547a.9.9 0 0 0 .453.125q.499 0 .875-.375.76-.768 1.5-3.515a4.7 4.7 0 0 1-1.047.421 4 4 0 0 1-1.078.157q-1.376.002-2.172-.735-1.048-.968-1.047-2.703 0-1.575.797-2.969a6.45 6.45 0 0 1 2.219-2.28c.957-.602 1.863-.907 2.718-.907q.686 0 1.625.219.95.205 1.438.218c-.281.993-.422 1.891-.422 2.704m6.156-.14h1.11l-.735 2.719c-.43 1.586-.64 2.484-.64 2.703q0 .157.062.234c.05.055.102.078.156.078a.54.54 0 0 0 .313-.125q.264-.169.984-.906l.25.297q-1.563 1.64-2.312 1.64a.54.54 0 0 1-.422-.203c-.117-.125-.172-.304-.172-.546q-.002-.405.172-1.079a7 7 0 0 1-1.719 1.391q-.69.406-1.187.406a.51.51 0 0 1-.422-.187q-.158-.17-.157-.563 0-.31.063-.656.105-.497.516-1.984.528-1.875.53-2.25-.002-.219-.155-.22c-.094 0-.227.048-.391.142q-.236.14-.828.703l-.344-.282q1.043-.937 1.594-1.218.563-.295.89-.297.187 0 .297.14.124.13.125.422 0 .533-.562 2.64c-.336 1.274-.5 1.997-.5 2.173q-.001.158.11.281.105.11.233.11.437 0 1.235-.72.81-.714 1.062-1.64zm5.406-3.578q.247 0 .407.172a.57.57 0 0 1 .156.406.87.87 0 0 1-.25.61.7.7 0 0 1-.531.25.52.52 0 0 1-.39-.157.6.6 0 0 1-.157-.437c0-.227.07-.426.219-.594a.73.73 0 0 1 .546-.25m-3.078 5.172L146.477 6q.779-.856 1.421-1.219c.438-.238.805-.36 1.11-.36.164 0 .289.04.375.11q.14.11.14.297 0 .224-.515 1.922c-.555 1.844-.828 2.96-.828 3.344q0 .11.047.187.06.064.125.063c.164 0 .593-.32 1.28-.969l.313.297q-1.078 1.018-1.578 1.297-.486.28-.797.281a.6.6 0 0 1-.437-.172q-.157-.168-.156-.484 0-.969 1.171-4.766a1.1 1.1 0 0 0 .063-.328q0-.155-.14-.156a.7.7 0 0 0-.36.125q-.206.128-.89.797m9.602 3.14.219.297q-1.05.891-1.547 1.172-.704.406-1.11.406a.47.47 0 0 1-.312-.11.3.3 0 0 1-.11-.233q-.002-.14.079-.438l.28-.953c-.624.668-1.148 1.125-1.562 1.375q-.627.358-1.125.36-.42-.002-.703-.36-.28-.375-.281-1.078-.001-1.107.766-2.547.761-1.452 1.687-2.14c.625-.458 1.195-.688 1.719-.688q.17 0 .516.047.358-1.513.687-2.22.342-.7.875-1.202a3.6 3.6 0 0 1 1.219-.781Q158.404.03 159 .03a.72.72 0 0 1 .5.172.51.51 0 0 1 .188.406c0 .157-.059.29-.172.391q-.177.157-.47.156c-.136 0-.382-.023-.733-.078a6 6 0 0 0-.72-.078.73.73 0 0 0-.484.172q-.203.157-.39.719-.129.346-.578 2.234l-1.11 4.719q-.187.844-.187 1.11c0 .198.07.296.219.296a.8.8 0 0 0 .328-.094q.264-.152 1.03-.75m-1.656-4.031q-.628-.14-.875-.14-.534 0-1.032.421c-.336.274-.656.805-.968 1.594-.305.781-.453 1.465-.453 2.047q-.001.393.203.656.217.251.5.25.327 0 .75-.297.59-.42.953-1.047.2-.387.562-1.906zm6.773 3.688.266.343q-1.922 1.828-3.282 1.828-.564 0-.859-.375c-.187-.25-.281-.648-.281-1.203q-.002-1.67 1.015-3.328 1.137-1.888 2.72-1.89.561 0 .843.28c.195.188.297.446.297.766q0 .503-.36 1-.346.488-1.25 1.016-.456.27-1.937.938a5 5 0 0 0-.063.796q-.002.564.172.782.17.22.516.218.31 0 .703-.187.516-.234 1.5-.984m-2.734-1.125q1.264-.563 1.89-1.22.436-.45.438-.89c0-.226-.063-.406-.188-.531a.58.58 0 0 0-.453-.203q-.281 0-.562.219-.364.282-.61.875a8 8 0 0 0-.515 1.75m0 0" aria-label="Heaven’s Light is Our Guide" style="fill:#333;fill-opacity:1;fill-rule:nonzero;stroke:none;stroke-width:1.33333"/>
</svg>
