<?xml version="1.0" encoding="UTF-8"?>
<!-- Created with Inkscape (http://www.inkscape.org/) -->
<svg width="190.89" height="164.39" version="1.1" viewBox="0 0 190.89 164.39" xmlns="http://www.w3.org/2000/svg">
 <g transform="translate(-613.68 -349.82)">
  <g>
   <path transform="matrix(.13333 0 0 -.13333 0 666.67)" d="m5225.4 2043.2v-0.01c0.17 0.44 0.36 0.87 0.54 1.31-0.18-0.44-0.35-0.87-0.54-1.3m210.17-211.21c-0.11 0.22-0.19 0.44-0.29 0.66-0.23 0.54-0.45 1.08-0.67 1.63 0.31-0.77 0.63-1.54 0.96-2.29m-171.23-310.55c0.48 0.36 0.95 0.73 1.41 1.09-0.46-0.35-0.93-0.72-1.41-1.09m-194.25-125.94c-0.3-0.04-0.57-0.07-0.87-0.1 0.3 0.03 0.58 0.06 0.87 0.1m476.16 48.88c0.39-0.14 0.76-0.3 1.13-0.47-0.37 0.16-0.74 0.32-1.13 0.47m-448.15 190.61c3.34 11.29 6.59 22.58 9.83 33.9 35.08-21.1 70.41-41.8 106-62 30.99-17.58 62.1-34.95 93.18-52.33-14.61-11.38-29.27-22.72-43.93-34.04 0.38 0.31 0.77 0.61 1.16 0.92-32.65-25.19-65.63-50.02-99.77-73.21-15.1-10.23-30.51-20.02-46.04-29.54-10.84-6.61-21.84-13.06-33.51-18.23-5.52-2.27-11.15-4.13-17.03-5.19-2.06-0.17-4.11-0.23-6.17-0.11-1.04 0.22-2.06 0.48-3.07 0.81-0.6 0.33-1.19 0.67-1.76 1.03-0.66 0.61-1.28 1.25-1.87 1.9-0.76 1.19-1.44 2.39-2.05 3.63-1.32 3.58-2.2 7.27-2.8 11.07-1.96 17.49-0.63 35.38 1.69 52.73 8.47 57.88 29.68 112.81 46.14 168.66m396.56 40.94c1.32-3.83 2.64-7.65 3.96-11.49 10.54-30.87 21.07-61.8 30.42-93.06 9.67-32.49 17.98-65.46 22.6-99.07-0.02 0.23-0.06 0.48-0.09 0.71 1.2-9.17 2.26-18.47 1.45-27.69-0.18-1.03-0.4-2.04-0.68-3.05-1.38 0.36-2.74 0.8-4.06 1.31-9.78 4.5-18.74 10.68-27.77 16.52-15.37 9.92-31.15 19.26-46.84 28.7-35.31 21.11-71.04 41.54-106.84 61.73-4.54 2.55-9.08 5.11-13.62 7.66 48.3 37.86 95.8 76.75 141.47 117.73m-496.04 147.54h-0.07 0.07m34.27 2.63c13.07 0.66 26.08 1.86 39.12 3.06 18.31 1.7 36.62 3.43 54.92 5.15-1.45-5.42-2.85-10.86-4.22-16.31-0.26-1.02-0.38-2.03-0.39-3.04-8.14-29.06-16.29-58.13-24.5-87.14-1.83-6.47-3.64-12.95-5.45-19.41-6.55 3.98-13.1 7.99-19.63 11.99-21.75 13.21-43.21 27.07-63.49 42.53-12.64 9.83-25.1 20.33-35.14 32.91-2.37 3.21-4.5 6.55-6.21 10.14-0.48 1.37-0.88 2.77-1.21 4.18-0.01 0.6-0.02 1.2 0 1.79 0.08 0.37 0.18 0.74 0.3 1.11 0.14 0.29 0.31 0.57 0.48 0.84 0.35 0.36 0.71 0.71 1.06 1.04 1.57 1.02 3.21 1.89 4.91 2.7 8.22 3.09 16.93 4.66 25.56 5.87 11.27 1.38 22.59 2.08 33.89 2.59m577.21 20.74c0.19-0.12 0.36-0.25 0.53-0.38-0.17 0.12-0.34 0.25-0.52 0.37l-0.01 0.01m-0.15 0.13c0.04-0.03 0.08-0.06 0.11-0.09l0.01-0.01c-0.04 0.04-0.08 0.07-0.12 0.1m-411.67-6.01c75.32 6.9 150.75 13.61 226.36 16.37 3.38-7.66 6.69-15.35 9.97-23.05-0.07 0.16-0.14 0.33-0.21 0.49 0.29-0.7 0.59-1.4 0.88-2.12 0.14-0.3 0.27-0.61 0.4-0.92-0.04 0.08-0.08 0.17-0.11 0.26 17.93-42.74 34.38-86.1 49.89-129.8-12.13-11.04-24.41-21.94-36.81-32.69-38.88-33.78-79.02-66.03-119.53-97.78-59.21 33.13-118.56 66.03-176.92 100.55-12.39 7.34-24.71 14.76-37.04 22.24 4.09 14.52 8.16 29.06 12.24 43.58 9.27 32.95 18.52 65.91 27.75 98.87 14.38 1.35 28.75 2.68 43.13 4m322.01 17.34c11.68-0.21 23.4-0.62 35.08-1.12 10.11-0.46 20.21-0.89 30.26-2.12 6.12-0.98 12.19-2.27 18.01-4.44 1.82-0.87 3.6-1.82 5.28-2.94 0.61-0.54 1.17-1.11 1.72-1.69 0.22-0.37 0.43-0.73 0.64-1.09 0.12-0.42 0.24-0.84 0.34-1.25 0.04-0.85 0.03-1.69-0.02-2.54-0.42-2.08-1.04-4.11-1.78-6.11-3.12-6.75-7.32-12.93-11.78-18.87-6.89-8.8-14.43-17.08-22.05-25.22-12.64-13.53-25.64-26.73-38.81-39.77-10.29-10.19-20.74-20.21-31.3-30.13-14.1 39.22-28.96 78.18-45.07 116.62-2.87 6.85-5.78 13.69-8.72 20.52 22.71 0.51 45.47 0.57 68.2 0.15m-220.27 218.37c0.25-0.32 0.5-0.66 0.76-0.99-0.26 0.33-0.51 0.68-0.76 0.99m-28.82 23.19c1.6-0.36 3.17-0.81 4.72-1.37 2.91-1.42 5.62-3.13 8.25-5.03 6.58-5.57 12.11-12.05 17.44-18.86 27.03-35.32 50.53-73.22 71.82-112.28 14.21-26.07 27.41-52.7 39.83-79.7-59.98-2.5-119.86-7.48-179.62-12.77-23.95-2.13-47.9-4.33-71.85-6.57 6.77 22.81 14.12 45.44 21.88 67.95 6.94 20.14 14.25 40.16 21.76 60.12 6.46 17.34 12.9 34.7 19.97 51.84-0.05-0.08-0.08-0.15-0.11-0.23 0.03 0.08 0.07 0.15 0.11 0.24 0.39 0.95 0.78 1.9 1.18 2.84-0.2-0.51-0.42-1.02-0.64-1.54 6.09 14.26 12.88 28.38 22.01 40.92 2.91 3.6 6.06 6.97 9.58 9.99 1.84 1.29 3.74 2.42 5.75 3.42 1.3 0.44 2.61 0.8 3.97 1.07 1.33 0.07 2.63 0.06 3.95-0.04m-10.1 24.97c-5.54-0.8-11.01-3.56-15.66-6.62-5.71-3.74-10.59-8.5-14.93-13.72-13.08-15.77-21.56-34.6-29.42-53.35-4.78-11.4-9.07-23-13.49-34.55-4.97-13.05-9.87-26.09-14.68-39.17-14.11-38.49-27.29-77.36-38.67-116.72-8.95-0.85-17.92-1.69-26.87-2.53-19.87-1.88-39.71-3.97-59.61-5.57-10.04-0.8-20.15-0.97-30.23-1.65-13.12-0.92-26.31-2.29-39.17-5.1-5.78-1.28-11.31-3.13-16.73-5.49-4.74-2.09-9.22-4.95-12.8-8.72-3.18-3.49-5.38-7.62-6.74-12.12-1.49-4.77-1.21-9.59-0.48-14.44 1.16-7.86 5.33-15.34 9.95-21.72 12.92-18.01 30.7-32.1 48.33-45.3 17.68-13.3 36.32-25.37 55.13-36.97 10.02-6.17 20.05-12.31 30.1-18.42-6.33-22.39-12.79-44.73-19.77-66.91-10.69-33.84-21.88-67.5-30.24-102.03-4.21-17.45-7.41-35.08-9.54-52.89-1.93-15.98-2.65-32.32-0.89-48.32 1.41-12.61 5.06-26.46 15.42-34.76 4.34-3.53 9.18-6.1 14.68-7.35 6.27-1.41 12.44-1.11 18.71-0.12 11.68 1.81 22.8 6.87 33.27 12.16 11.04 5.55 21.59 12.13 32.11 18.62 67.56 41.8 129.6 91.43 192.31 140 32.66-18.33 65.24-36.76 97.58-55.63 17.79-10.35 35.48-20.87 53.02-31.58 12.8-7.76 25.33-15.86 38.01-23.8 4.37-2.74 8.84-5.38 13.5-7.71 4.57-2.29 9.47-4.46 14.52-5.34 2.41-0.4 4.93-0.76 7.39-0.6 3.56 0.28 6.05 1 9.31 2.45 4.53 2 8.27 6.26 10.36 10.71 6.3 13.6 4.08 29.63 2.27 43.99-2.4 19.22-6.09 38.25-10.5 57.07-8.91 37.65-20.91 74.46-33.24 111.06-5.96 17.68-12 35.35-18.18 52.97l1.92 1.76c27.66 25.62 54.55 52.11 80.15 79.72 8.67 9.35 17.03 18.98 24.57 29.25 6.03 8.14 11.44 17.23 14.13 27.1 2.48 9.15 1.68 19.74-3.97 27.65-7.03 9.8-18.07 14.77-29.51 17.7-7.53 1.97-15.37 2.85-23.11 3.61-10.47 1-21.04 1.29-31.54 1.73-20.91 0.84-41.87 1.16-62.79 1.08-14.73-0.03-29.47-0.28-44.2-0.69-22.64 50.3-47.79 99.49-77.08 146.22-9.03 14.42-18.54 28.5-28.5 42.31-4.89 6.82-9.94 13.52-15.13 20.13-5.69 7.36-11.68 14.38-18.94 20.28-5.98 4.86-12.21 8.5-19.47 11.12-3.87 1.4-7.86 1.93-11.88 1.93-2.92 0-5.85-0.29-8.78-0.73" fill="#fbc31f"/>
   <g fill="#fee445">
    <path transform="matrix(.13333 0 0 -.13333 0 666.67)" d="m4789.4 2135.2h-0.27c-2.02 0-3.92-0.75-5.41-2.12-1.58-1.44-2.48-3.39-2.57-5.48-0.08-1.78 0.54-4.32 2.09-5.69l21.95-18.8 22.31-19.1c1.84-1.52 3.31-2.43 5.48-2.55 2.29 0 4.23 0.72 5.71 2.11 1.54 1.43 2.43 3.33 2.56 5.49 0.07 1.79-0.55 4.33-2.09 5.7l-22.15 18.95-22.12 18.94c-1.83 1.53-3.3 2.44-5.48 2.55h-0.01"/>
    <path transform="matrix(.13333 0 0 -.13333 0 666.67)" d="m5114.1 2376.3c-4.44 0-8.01-3.39-8.14-7.72-0.04-2.1 0.81-4.18 2.33-5.74 1.44-1.53 3.43-2.39 5.41-2.39 4.44 0 8 3.38 8.13 7.71 0.04 2.09-0.8 4.18-2.32 5.74-1.44 1.53-3.42 2.4-5.41 2.4"/>
    <path transform="matrix(.13333 0 0 -.13333 0 666.67)" d="m5122 2348.8c-0.59 0-1.04-0.06-1.52-0.13-2.31-0.52-4.25-1.99-5.39-3.97-1.04-1.75-1.33-3.71-0.81-5.53l25.53-88.96 25.53-88.7c1.05-3.71 4.16-6.21 7.71-6.21 0.57 0 1.15 0.08 1.71 0.16 3.47 0.82 6.23 4.13 6.31 7.53 0 0.65-0.1 1.3-0.28 1.96l-21.17 73.6-16.48 57.35-13.41 46.68c-1.07 3.72-4.16 6.22-7.73 6.22"/>
    <path transform="matrix(.13333 0 0 -.13333 0 666.67)" d="m5178.4 2125.3c0-4.21 3.49-7.71 7.71-7.71 4.21 0 7.7 3.5 7.7 7.71s-3.49 7.7-7.7 7.7c-4.22 0-7.71-3.49-7.71-7.7"/>
    <path transform="matrix(.13333 0 0 -.13333 0 666.67)" d="m4876.8 2057.1c-4.43 0-8-3.39-8.12-7.73-0.04-2.1 0.8-4.19 2.32-5.74 1.44-1.51 3.42-2.39 5.4-2.39 4.46 0 8.01 3.39 8.14 7.71 0.05 2.1-0.8 4.19-2.32 5.75-1.44 1.52-3.43 2.4-5.42 2.4"/>
    <path transform="matrix(.13333 0 0 -.13333 0 666.67)" d="m4919.7 2023.8h-0.32c-1.98 0-3.93-0.78-5.36-2.12-1.57-1.45-2.49-3.4-2.57-5.49-0.09-1.79 0.54-4.33 2.08-5.7l7.96-6.82 17.58-15.06 60.68-51.89 32.55-27.86c1.53-1.26 3.12-2.39 5.48-2.54 2.28 0 4.22 0.72 5.7 2.1 1.54 1.44 2.43 3.34 2.55 5.49 0.09 1.78-0.54 4.33-2.08 5.71-24.12 20.83-48.36 41.5-72.62 62.17l-20.21 17.25-8.19 6.99-17.75 15.21c-1.52 1.26-3.1 2.39-5.47 2.56h-0.01"/>
    <path transform="matrix(.13333 0 0 -.13333 0 666.67)" d="m4670.4 1650.9c-0.52 0-1.06-0.09-1.54-0.18-19.99-3.89-40.02-7.77-60.04-11.63-2.02-0.41-3.76-1.61-4.89-3.38-1.22-1.79-1.66-4-1.22-6.09 0.82-3.65 4.06-6.18 7.89-6.18 0.53 0 1.06 0.03 1.54 0.11 19.98 3.9 40.02 7.8 60.04 11.65 2.03 0.41 3.76 1.61 4.89 3.38 1.23 1.79 1.68 4.01 1.22 6.1-0.85 3.66-4.11 6.22-7.89 6.22"/>
    <path transform="matrix(.13333 0 0 -.13333 0 666.67)" d="m4687.1 1489.2c-4.45 0-8.01-3.4-8.13-7.73-0.05-2.09 0.8-4.18 2.31-5.74 1.45-1.52 3.42-2.39 5.41-2.39 4.44 0 8 3.39 8.13 7.72 0.05 2.09-0.8 4.18-2.31 5.74-1.44 1.52-3.42 2.4-5.41 2.4"/>
    <path transform="matrix(.13333 0 0 -.13333 0 666.67)" d="m4774.5 1534.8c-1.17 0-2.36-0.28-3.54-0.86l-28.48-14.25-14.1-7.09c-1.82-0.89-3.21-2.51-3.9-4.55-0.67-2.02-0.49-4.23 0.45-6.1 1.37-2.65 4.09-4.28 7.11-4.28 1.25 0 2.44 0.29 3.54 0.85l28.49 14.25 14.09 7.11c1.82 0.89 3.21 2.5 3.9 4.55 0.66 2 0.49 4.22-0.45 6.1-1.34 2.59-4.12 4.27-7.11 4.27"/>
    <path transform="matrix(.13333 0 0 -.13333 0 666.67)" d="m4967.3 1631.4c-1.21 0-2.48-0.31-3.53-0.86l-93.03-46.6-61.86-30.98c-2.08-1.08-3.48-2.67-4.15-4.72-0.65-2.04-0.47-4.25 0.5-6.06 1.32-2.62 4.02-4.27 7.02-4.27 1.29 0 2.49 0.3 3.59 0.86 51.74 25.89 103.42 51.81 155.11 77.74 1.87 0.94 3.27 2.55 3.91 4.55 0.66 2.05 0.48 4.26-0.49 6.07-1.33 2.62-4.04 4.27-7.07 4.27"/>
    <path transform="matrix(.13333 0 0 -.13333 0 666.67)" d="m4904.8 1696.2c-0.55 0-1.08-0.07-1.63-0.22l-64.06-12.4-64.09-12.4c-2.01-0.41-3.69-1.57-4.87-3.37-1.17-1.77-1.61-3.97-1.19-6.06 0.82-3.64 4.04-6.18 7.84-6.18 0.54 0 1.07 0.04 1.55 0.13l64.02 12.44 64.18 12.4c2 0.41 3.69 1.58 4.88 3.38 1.17 1.79 1.59 3.99 1.14 6.06-0.74 3.6-4.01 6.22-7.77 6.22"/>
    <path transform="matrix(.13333 0 0 -.13333 0 666.67)" d="m4720.7 1660.2c-4.44 0-8.01-3.41-8.13-7.72-0.04-2.1 0.8-4.19 2.32-5.75 1.44-1.52 3.42-2.4 5.41-2.4 4.43 0 8 3.39 8.12 7.73 0.05 2.09-0.8 4.19-2.31 5.74-1.44 1.51-3.42 2.4-5.41 2.4"/>
    <path transform="matrix(.13333 0 0 -.13333 0 666.67)" d="m4949.5 1704.9c-0.48 0-1.02-0.05-1.53-0.14l-2.3-0.44-7.62-1.46-6.43-1.26c-1.99-0.41-3.71-1.61-4.88-3.37-1.16-1.77-1.59-3.98-1.18-6.06 0.82-3.65 4.06-6.19 7.89-6.19 0.52 0 1.05 0.04 1.54 0.13l2.21 0.44c4.53 0.84 9.14 1.73 13.69 2.66 2.33 0.47 4.12 1.63 5.32 3.45 1.18 1.78 1.6 3.99 1.14 6.05-0.78 3.64-4 6.19-7.85 6.19"/>
    <path transform="matrix(.13333 0 0 -.13333 0 666.67)" d="m5366.2 1409c-0.53 0-1.11-0.1-1.71-0.24-1.98-0.37-3.91-1.71-4.99-3.5-0.96-1.53-1.64-3.94-1.03-5.91l34.23-106.12 34.24-106.12c0.54-1.69 1.37-3.61 3.55-4.98 1.19-0.76 2.67-1.18 4.14-1.18 0.73 0 1.25 0.05 1.75 0.19 1.98 0.37 3.9 1.71 4.99 3.51 0.95 1.52 1.64 3.94 1.02 5.9-22.83 70.71-45.66 141.47-68.47 212.23-0.52 1.7-1.35 3.61-3.53 5-1.31 0.79-2.75 1.22-4.19 1.22"/>
    <path transform="matrix(.13333 0 0 -.13333 0 666.67)" d="m5445.1 1159.2c-4.44 0-8-3.4-8.12-7.73-0.05-2.1 0.8-4.18 2.32-5.74 1.44-1.52 3.42-2.39 5.4-2.39 4.44 0 8.01 3.38 8.13 7.72 0.05 2.09-0.8 4.18-2.32 5.73-1.43 1.53-3.41 2.41-5.41 2.41"/>
    <path transform="matrix(.13333 0 0 -.13333 0 666.67)" d="m5919.9 1479.8c-4.45 0-8.01-3.39-8.14-7.72-0.04-2.09 0.8-4.17 2.33-5.74 1.43-1.52 3.43-2.39 5.41-2.39 4.43 0 8 3.39 8.12 7.73 0.05 2.08-0.8 4.17-2.31 5.73-1.44 1.52-3.42 2.39-5.41 2.39"/>
    <path transform="matrix(.13333 0 0 -.13333 0 666.67)" d="m5792.8 1523.4c-3.43 0-6.63-2.35-7.61-5.57-1.29-4.14 0.99-8.5 5.22-9.92l42.21-14.29 42.18-14.29c0.73-0.24 1.5-0.36 2.28-0.36 3.44 0 6.65 2.34 7.6 5.57 1.3 4.16-0.97 8.49-5.2 9.88l-42.18 14.33-42.22 14.28c-0.65 0.25-1.42 0.37-2.28 0.37"/>
    <path transform="matrix(.13333 0 0 -.13333 0 666.67)" d="m5711.6 1550.8c-3.4 0-6.58-2.36-7.56-5.61-1.26-4.11 1.01-8.46 5.21-9.88l15.25-5.19 15.28-5.13c0.69-0.26 1.5-0.4 2.33-0.4 3.41 0 6.59 2.36 7.56 5.61 1.26 4.12-1.03 8.46-5.2 9.88l-15.25 5.18-15.29 5.14c-0.87 0.27-1.63 0.4-2.33 0.4"/>
    <path transform="matrix(.13333 0 0 -.13333 0 666.67)" d="m5887.9 1617.4c-4.44 0-8-3.4-8.13-7.74-0.04-2.08 0.8-4.17 2.32-5.73 1.44-1.51 3.41-2.39 5.4-2.39 4.45 0 8.01 3.39 8.13 7.72 0.06 2.09-0.8 4.18-2.3 5.75-1.45 1.51-3.43 2.39-5.42 2.39"/>
    <path transform="matrix(.13333 0 0 -.13333 0 666.67)" d="m5934.4 1609.5c-4.44 0-8.01-3.39-8.14-7.72-0.03-2.09 0.81-4.18 2.33-5.74 1.43-1.52 3.41-2.4 5.4-2.4 4.44 0 8.01 3.4 8.13 7.73 0.05 2.08-0.8 4.17-2.31 5.74-1.44 1.51-3.42 2.39-5.41 2.39"/>
    <path transform="matrix(.13333 0 0 -.13333 0 666.67)" d="m5981.6 1595.4c-3.69 0-6.7-2.15-7.69-5.49-0.65-2.03-0.36-4.43 0.77-6.42 1.03-1.79 2.65-3.06 4.45-3.46l25.07-5.9 18.15-4.21 1.69-0.37c0.67-0.19 1.4-0.27 2.19-0.27 3.65 0 6.67 2.15 7.68 5.47 0.65 2.05 0.36 4.45-0.77 6.43-1.03 1.81-2.64 3.07-4.44 3.47l-25.44 5.93-19.47 4.55c-0.72 0.18-1.46 0.27-2.19 0.27"/>
    <path transform="matrix(.13333 0 0 -.13333 0 666.67)" d="m5581.5 1688.6c-3.76 0-6.7-2.1-7.69-5.49-0.64-2.04-0.32-4.46 0.82-6.46 1.03-1.81 2.59-3.02 4.41-3.42l64.17-14.97 202.68-47.25 1.18-0.19c0.63-0.28 1.34-0.36 2.14-0.36 3.65 0 6.66 2.14 7.68 5.48 0.64 2.04 0.33 4.46-0.81 6.47-1.03 1.8-2.59 3.02-4.4 3.42l-134.38 31.33-133.61 31.16c-0.71 0.18-1.46 0.28-2.19 0.28"/>
    <path transform="matrix(.13333 0 0 -.13333 0 666.67)" d="m5661.5 2224.4c-4.43 0-8-3.4-8.13-7.72-0.03-2.1 0.81-4.19 2.32-5.74 1.43-1.52 3.42-2.4 5.41-2.4 4.44 0 8.01 3.4 8.13 7.73 0.04 2.09-0.81 4.18-2.32 5.74-1.45 1.51-3.42 2.39-5.41 2.39"/>
    <path transform="matrix(.13333 0 0 -.13333 0 666.67)" d="m5637.8 2194.6c-0.6 0-1.17-0.07-1.71-0.21-2.37-0.48-3.71-1.93-4.99-3.48l-25.35-31-11.41-13.96-8.23-10.07c-1.24-1.53-1.46-4.14-1.03-5.91 0.44-2.06 1.7-3.85 3.54-5.03 1.2-0.76 2.67-1.18 4.15-1.18 0.69 0 1.21 0.05 1.72 0.2 2.19 0.45 3.57 1.72 4.99 3.49l22.47 27.49 22.51 27.53c1.26 1.53 1.46 4.14 1.02 5.92-0.44 2.06-1.69 3.84-3.54 5.02-1.24 0.76-2.75 1.19-4.14 1.19"/>
    <path transform="matrix(.13333 0 0 -.13333 0 666.67)" d="m5562.7 2104.2c-4.44 0-8.01-3.4-8.13-7.73-0.04-2.1 0.81-4.19 2.31-5.73 1.44-1.53 3.43-2.4 5.42-2.4 4.43 0 8 3.39 8.12 7.72 0.04 2.09-0.8 4.18-2.32 5.74-1.44 1.52-3.41 2.4-5.4 2.4"/>
    <path transform="matrix(.13333 0 0 -.13333 0 666.67)" d="m5537.6 2072.1c-0.59 0-1.17-0.08-1.72-0.21-2.37-0.49-3.7-1.93-4.98-3.48l-78.46-95.97c-1.24-1.54-1.46-4.14-1.03-5.91 0.45-2.1 1.75-3.93 3.54-5 1.18-0.78 2.65-1.21 4.15-1.21 0.69 0 1.22 0.05 1.72 0.2 2.37 0.47 3.71 1.93 4.99 3.47l78.45 95.97c1.25 1.54 1.46 4.14 1.03 5.92-0.45 2.07-1.74 3.88-3.55 5-1.29 0.8-2.73 1.22-4.14 1.22"/>
   </g>
  </g>
 </g>
</svg>
